<svg width="19" height="20" viewBox="0 0 19 20" fill="none" xmlns="http://www.w3.org/2000/svg">
<path d="M19 10C19 10 15.4375 3.46875 9.5 3.46875C3.5625 3.46875 0 10 0 10C0 10 3.5625 16.5312 9.5 16.5312C15.4375 16.5312 19 10 19 10ZM1.39294 10C1.96711 9.12733 2.62751 8.31456 3.36419 7.57394C4.8925 6.04325 6.9825 4.65625 9.5 4.65625C12.0175 4.65625 14.1063 6.04325 15.637 7.57394C16.3737 8.31456 17.0341 9.12733 17.6083 10C17.5394 10.1033 17.4634 10.2173 17.3767 10.342C16.9789 10.912 16.3911 11.672 15.637 12.4261C14.1063 13.9568 12.0163 15.3438 9.5 15.3438C6.9825 15.3438 4.89369 13.9568 3.363 12.4261C2.62633 11.6854 1.96593 10.8727 1.39175 10H1.39294Z" fill="#4F5356"/>
<path d="M9.5 7.03125C8.71264 7.03125 7.95753 7.34403 7.40078 7.90078C6.84403 8.45753 6.53125 9.21264 6.53125 10C6.53125 10.7874 6.84403 11.5425 7.40078 12.0992C7.95753 12.656 8.71264 12.9688 9.5 12.9688C10.2874 12.9688 11.0425 12.656 11.5992 12.0992C12.156 11.5425 12.4688 10.7874 12.4688 10C12.4688 9.21264 12.156 8.45753 11.5992 7.90078C11.0425 7.34403 10.2874 7.03125 9.5 7.03125ZM5.34375 10C5.34375 8.89769 5.78164 7.84054 6.56109 7.06109C7.34054 6.28164 8.39769 5.84375 9.5 5.84375C10.6023 5.84375 11.6595 6.28164 12.4389 7.06109C13.2184 7.84054 13.6562 8.89769 13.6562 10C13.6562 11.1023 13.2184 12.1595 12.4389 12.9389C11.6595 13.7184 10.6023 14.1562 9.5 14.1562C8.39769 14.1562 7.34054 13.7184 6.56109 12.9389C5.78164 12.1595 5.34375 11.1023 5.34375 10Z" fill="#4F5356"/>
</svg>
